<svg version="1.1" id="Layer_1" xmlns="http://www.w3.org/2000/svg" xmlns:xlink="http://www.w3.org/1999/xlink" x="0px" y="0px"
	 width="100%" viewBox="0 0 158 151" enable-background="new 0 0 158 151" xml:space="preserve">
<path fill="#F7F7F7" opacity="1.000000" stroke="none" 
	d="
M97.000000,152.000000 
	C64.666672,152.000000 32.833340,152.000000 1.000009,152.000000 
	C1.000006,101.666679 1.000006,51.333351 1.000003,1.000022 
	C53.666653,1.000015 106.333305,1.000015 158.999969,1.000007 
	C158.999969,51.333313 158.999969,101.666626 158.999985,151.999969 
	C138.500000,152.000000 118.000000,152.000000 97.000000,152.000000 
M48.390697,134.148056 
	C90.091805,157.083878 137.189117,129.065613 143.040543,90.555252 
	C133.240967,99.569405 123.647797,108.210297 114.283142,117.092140 
	C110.159447,121.003227 106.011955,123.803848 99.892235,122.915367 
	C95.978867,122.347221 91.914825,122.626419 87.932777,122.821083 
	C86.463394,122.892906 84.572403,123.401169 83.672401,124.417603 
	C80.556892,127.936096 78.090103,127.146530 75.097488,124.206551 
	C71.668503,120.837860 74.120422,119.019119 76.285561,116.617973 
	C78.479752,114.184601 80.243042,114.249451 82.505539,116.394379 
	C83.368431,117.212410 84.739136,117.904373 85.896515,117.933464 
	C91.887680,118.084091 97.889351,118.128418 103.876389,117.909645 
	C105.342865,117.856056 107.052132,116.986565 108.168640,115.965889 
	C119.828964,105.306366 131.431732,94.582474 142.917572,83.735695 
	C144.061981,82.654953 144.850998,80.669701 144.926956,79.062752 
	C146.973587,35.760422 102.972260,1.825584 61.605179,15.052133 
	C34.613480,23.682352 18.576925,42.630806 15.504121,70.588982 
	C12.489871,98.014397 24.216240,119.266632 48.390697,134.148056 
z"/>
<path fill="#0C0B0C" opacity="1.000000" stroke="none" 
	d="
M48.045135,134.015640 
	C24.216240,119.266632 12.489871,98.014397 15.504121,70.588982 
	C18.576925,42.630806 34.613480,23.682352 61.605179,15.052133 
	C102.972260,1.825584 146.973587,35.760422 144.926956,79.062752 
	C144.850998,80.669701 144.061981,82.654953 142.917572,83.735695 
	C131.431732,94.582474 119.828964,105.306366 108.168640,115.965889 
	C107.052132,116.986565 105.342865,117.856056 103.876389,117.909645 
	C97.889351,118.128418 91.887680,118.084091 85.896515,117.933464 
	C84.739136,117.904373 83.368431,117.212410 82.505539,116.394379 
	C80.243042,114.249451 78.479752,114.184601 76.285561,116.617973 
	C74.120422,119.019119 71.668503,120.837860 75.097488,124.206551 
	C78.090103,127.146530 80.556892,127.936096 83.672401,124.417603 
	C84.572403,123.401169 86.463394,122.892906 87.932777,122.821083 
	C91.914825,122.626419 95.978867,122.347221 99.892235,122.915367 
	C106.011955,123.803848 110.159447,121.003227 114.283142,117.092140 
	C123.647797,108.210297 133.240967,99.569405 143.040543,90.555252 
	C137.189117,129.065613 90.091805,157.083878 48.045135,134.015640 
M101.830139,88.127220 
	C106.787842,76.708984 104.377365,66.218048 94.975792,58.295597 
	C87.604416,52.083939 75.660660,51.235744 67.475037,56.342632 
	C58.480419,61.954243 54.006779,72.465408 56.190166,82.857285 
	C58.192890,92.389259 66.910675,100.123985 77.475266,101.742157 
	C86.059517,103.057007 96.655060,97.332977 101.830139,88.127220 
z"/>
<path fill="#7D2DAB" opacity="1.000000" stroke="none" 
	d="
M101.642532,88.457428 
	C96.655060,97.332977 86.059517,103.057007 77.475266,101.742157 
	C66.910675,100.123985 58.192890,92.389259 56.190166,82.857285 
	C54.006779,72.465408 58.480419,61.954243 67.475037,56.342632 
	C75.660660,51.235744 87.604416,52.083939 94.975792,58.295597 
	C104.377365,66.218048 106.787842,76.708984 101.642532,88.457428 
M74.180527,87.427689 
	C78.490120,90.562660 82.597351,89.541786 86.724091,86.943703 
	C91.170799,84.144165 92.915718,77.877922 90.602821,72.535774 
	C88.621017,67.958359 82.249435,64.321922 78.147102,65.533470 
	C73.035873,67.042976 69.388748,70.129250 68.401810,75.585678 
	C67.513245,80.498245 69.712746,84.175743 74.180527,87.427689 
z"/>
<path fill="#0E0A11" opacity="1.000000" stroke="none" 
	d="
M73.862534,87.237549 
	C69.712746,84.175743 67.513245,80.498245 68.401810,75.585678 
	C69.388748,70.129250 73.035873,67.042976 78.147102,65.533470 
	C82.249435,64.321922 88.621017,67.958359 90.602821,72.535774 
	C92.915718,77.877922 91.170799,84.144165 86.724091,86.943703 
	C82.597351,89.541786 78.490120,90.562660 73.862534,87.237549 
z"/>
</svg>